<svg width="120" height="120" viewBox="0 0 120 120" fill="none" xmlns="http://www.w3.org/2000/svg">
  <defs>
    <radialGradient id="bg" cx="50%" cy="40%" r="70%">
      <stop offset="0%" stop-color="#0EA5A3" stop-opacity="0.9" />
      <stop offset="45%" stop-color="#0B5E55" />
      <stop offset="100%" stop-color="#022A38" />
    </radialGradient>
    <linearGradient id="blobA" x1="12" y1="32" x2="96" y2="94" gradientUnits="userSpaceOnUse">
      <stop offset="0%" stop-color="#6EE7B7" />
      <stop offset="100%" stop-color="#10B981" />
    </linearGradient>
    <linearGradient id="blobB" x1="32" y1="18" x2="98" y2="82" gradientUnits="userSpaceOnUse">
      <stop offset="0%" stop-color="#5EEAD4" />
      <stop offset="100%" stop-color="#14B8A6" />
    </linearGradient>
    <linearGradient id="blobC" x1="36" y1="55" x2="110" y2="110" gradientUnits="userSpaceOnUse">
      <stop offset="0%" stop-color="#22D3EE" />
      <stop offset="100%" stop-color="#0EA5E9" />
    </linearGradient>
  </defs>
  <circle cx="60" cy="60" r="58" fill="url(#bg)" />
  <path d="M34.2 41.7c-6.9 4-11.4 11.2-11.4 19 0 12.4 10.1 22.5 22.5 22.5 5.9 0 11.3-2.3 15.3-6.3l17.7-17.7c3.7-3.7 3.7-9.8 0-13.5l-4.5-4.5c-3.7-3.7-9.8-3.7-13.5 0L45 57.5c-2.2 2.2-5.8 2.2-8 0-3.1-3.1-2.5-8.3 1.2-10.5l6.1-3.6c4.4-2.6 5.8-8.3 3.2-12.6-2.7-4.5-8.5-6-13.1-3.4l-0.2 0.1z" fill="url(#blobA)" />
  <path d="M61.5 21.8c-4.5 2.6-5.9 8.4-3.2 12.8l8 13.2c2.1 3.5 6.6 4.9 10.3 3.1l14.1-6.8c4.9-2.4 7.5-8 6-13.3-1.9-7-8.4-12-15.7-12h-8.1c-4.1 0-8 1-11.4 3z" fill="url(#blobB)" />
  <path d="M63.2 69.4c-3.7 3.7-3.7 9.8 0 13.5l7.6 7.6c3.7 3.7 9.8 3.7 13.5 0l4.7-4.7c4-4 6.3-9.4 6.3-15.1 0-12.4-10.1-22.5-22.5-22.5-5.7 0-11.2 2.3-15.1 6.3l-8.9 8.9c-2.2 2.2-5.8 2.2-8 0-3.1-3.1-2.5-8.3 1.2-10.5l4.9-2.8c4.4-2.6 5.8-8.3 3.2-12.6-2.7-4.5-8.5-6-13.1-3.4l-7.7 4.3c-5.9 3.3-9.5 9.6-9.5 16.4 0 10.3 7.6 19.1 17.7 20.5 5.5 0.8 11.1-1 15.1-5z" fill="url(#blobC)" opacity="0.92" />
</svg>
